:SAMPLES-PER-SECOND 30
:FRAME-RANGE 1-2775
:FULLY-SPECIFIED
:DEGREES
1128
root  7.49359 39.1238 -35.5878 -7.09003 -64.0661 9.21805
RightUpLeg  -18.5136 -1.75496 -7.04869
RightLeg  60.2997 -5.19086 -10.2394
RightFoot  -7.85506 -0.317184 8.64778
RightToes  1.218e-010 1.26228e-014 -6.01869e-014
Spine  -5.77662 1.15542 -1.73881
Spine1  10.8085 1.57814 -3.85252
HEad  6.04819 11.1818 1.7531
LeftShoulder1  1.07236 -0.44801 -22.5072
LeftArm  -0.466579 5.10842 -50.7151
LeftForeArm  36.6552 -0.297744 -12.8833
LeftHand  0.000474745 6.25274 4.00049
RightShoulder  1.80168 2.38873 25.5978
RightArm  -24.5978 10.5074 58.5204
RightForeArm  68.3211 -4.73407 2.95024
RightHand  0.258485 -7.26789 -16.9914
LeftUpLeg  -13.4331 -1.82964 -8.72302
LeftLeg  20.0723 5.77088 2.82717
LeftFoot  -7.22023 -0.0899281 3.70715
LeftToes  5.08156e-010 -6.90346e-011 -6.33378e-011
1129
root  6.61973 39.1903 -35.1608 -6.18796 -63.0616 8.05902
RightUpLeg  -20.2214 -1.92838 -6.50547
RightLeg  55.1193 -7.79499 -12.2166
RightFoot  -8.97877 -0.230992 8.22371
RightToes  1.218e-010 1.26228e-014 -6.01869e-014
Spine  -5.61671 0.746712 -2.13288
Spine1  10.3837 1.12269 -3.31309
HEad  5.34588 10.9409 2.0941
LeftShoulder1  1.18021 -0.862229 -22.2428
LeftArm  0.176458 4.05246 -51.6308
LeftForeArm  37.1401 -0.823338 -12.9402
LeftHand  -0.00796088 5.94941 4.09315
RightShoulder  1.75105 2.18742 25.8404
RightArm  -24.9838 9.69577 57.5776
RightForeArm  68.1171 -5.10922 2.80331
RightHand  0.276902 -7.3516 -17.3301
LeftUpLeg  -11.531 -1.22996 -8.39335
LeftLeg  19.9241 4.40105 2.28186
LeftFoot  -8.56178 -0.0396892 3.75915
LeftToes  5.08156e-010 -6.90346e-011 -6.33378e-011
1130
root  5.74493 39.2498 -34.746 -5.34772 -62.4787 6.99634
RightUpLeg  -21.7764 -1.47012 -6.13965
RightLeg  49.0455 -9.79514 -12.1836
RightFoot  -7.83487 -0.270537 7.0866
RightToes  1.218e-010 1.26228e-014 -6.01869e-014
Spine  -5.63499 0.487869 -2.254
Spine1  10.2296 0.877367 -2.89743
HEad  4.72165 10.8065 2.39324
LeftShoulder1  1.27112 -1.19975 -22.1349
LeftArm  1.25204 2.83608 -52.3496
LeftForeArm  37.3018 -1.35785 -13.0803
LeftHand  -0.00987411 5.86005 4.24852
RightShoulder  1.71768 2.03968 26.1044
RightArm  -25.5984 8.96372 56.6258
RightForeArm  68.2367 -5.2122 2.55345
RightHand  0.30524 -7.47405 -17.8526
LeftUpLeg  -9.59088 -0.643917 -7.92465
LeftLeg  19.5822 3.39591 1.88148
LeftFoot  -9.81266 0.00601563 3.97348
LeftToes  5.08156e-010 -6.90346e-011 -6.33378e-011
1131
root  4.87366 39.2792 -34.3471 -4.66458 -61.9534 6.18945
RightUpLeg  -22.8182 -0.930279 -6.1619
RightLeg  41.9729 -10.5435 -10.2666
RightFoot  -7.64011 -0.286388 7.24373
RightToes  1.218e-010 1.26228e-014 -6.01869e-014
Spine  -5.72931 0.210876 -2.34105
Spine1  10.0634 0.662571 -2.7138
HEad  4.4016 10.7131 2.7186
LeftShoulder1  1.33215 -1.44567 -21.9495
LeftArm  2.68965 1.87549 -52.951
LeftForeArm  37.0958 -2.12242 -13.2231
LeftHand  -0.0107445 5.89704 4.31062
RightShoulder  1.69227 1.93462 26.2673
RightArm  -26.2951 8.07701 55.7143
RightForeArm  68.3253 -5.1641 2.28725
RightHand  0.305523 -7.47308 -17.8287
LeftUpLeg  -7.71998 -0.0844251 -7.46256
LeftLeg  19.2233 2.42909 1.50928
LeftFoot  -11.1399 0.0600152 3.97219
LeftToes  5.08156e-010 -6.90346e-011 -6.33378e-011
1132
root  3.99578 39.3107 -33.9431 -3.84473 -61.4008 5.25742
RightUpLeg  -23.3101 -0.678764 -6.06367
RightLeg  34.194 -10.9211 -8.116
RightFoot  -6.63445 -0.355006 7.5271
RightToes  1.218e-010 1.26228e-014 -6.01869e-014
Spine  -5.89036 -0.0592742 -2.21853
Spine1  9.88634 0.420722 -2.4356
HEad  4.42765 10.613 2.90746
LeftShoulder1  1.38624 -1.62877 -22.01
LeftArm  4.30591 1.10181 -53.2514
LeftForeArm  36.7874 -2.857 -13.3579
LeftHand  -0.00678861 5.8256 4.45814
RightShoulder  1.64928 1.77696 26.4245
RightArm  -27.2896 6.99477 54.7019
RightForeArm  68.4978 -5.08556 1.86012
RightHand  0.295669 -7.34664 -17.5878
LeftUpLeg  -5.75413 0.291677 -6.90888
LeftLeg  18.6035 1.57749 1.24826
LeftFoot  -12.2918 0.106788 3.96306
LeftToes  5.08156e-010 -6.90346e-011 -6.33378e-011
1133
root  3.11471 39.3315 -33.5418 -2.9548 -60.7917 4.43634
RightUpLeg  -23.2534 -0.810369 -6.12063
RightLeg  25.4407 -9.91087 -5.31111
RightFoot  -5.42472 -0.425599 7.50894
RightToes  1.218e-010 1.26228e-014 -6.01869e-014
Spine  -6.19384 -0.326041 -2.01266
Spine1  9.65343 0.177858 -2.17984
HEad  4.71384 10.4428 3.01252
LeftShoulder1  1.4071 -1.70367 -22.0066
LeftArm  5.526 0.436636 -53.6024
LeftForeArm  36.6538 -3.12673 -13.5007
LeftHand  -0.00809725 5.79419 4.24806
RightShoulder  1.58326 1.53166 26.7076
RightArm  -28.2782 5.63468 53.5445
RightForeArm  68.3758 -5.0202 1.44582
RightHand  0.293712 -7.43852 -17.5363
LeftUpLeg  -3.89198 0.549345 -6.37062
LeftLeg  17.8028 0.773381 1.04544
LeftFoot  -13.2858 0.148344 4.03365
LeftToes  5.08156e-010 -6.90346e-011 -6.33378e-011
1134
root  2.21942 39.342 -33.1404 -2.108 -60.1635 3.80478
RightUpLeg  -22.7165 -1.13989 -6.31661
RightLeg  16.1088 -7.44858 -2.62284
RightFoot  -3.76809 -0.574092 8.27104
RightToes  1.218e-010 1.26228e-014 -6.01869e-014
Spine  -6.81621 -0.526022 -1.72497
Spine1  9.72257 -0.0118325 -1.92974
HEad  4.96505 10.1708 2.95953
LeftShoulder1  1.41239 -1.72095 -22.0157
LeftArm  5.87252 -0.23184 -53.987
LeftForeArm  37.0272 -2.76928 -13.6389
LeftHand  -0.00844769 5.84968 4.15679
RightShoulder  1.50705 1.27686 26.8603
RightArm  -29.4583 3.97652 52.423
RightForeArm  68.0601 -4.94431 0.927475
RightHand  0.299736 -7.43748 -17.6104
LeftUpLeg  -2.03212 0.776752 -5.85299
LeftLeg  16.7567 -0.0482084 0.863603
LeftFoot  -14.2071 0.18168 3.84851
LeftToes  5.08156e-010 -6.90346e-011 -6.33378e-011
1135
root  1.28969 39.2937 -32.7505 -1.65338 -59.6855 3.67047
RightUpLeg  -22.2883 -1.80077 -6.33597
RightLeg  8.00491 -3.94881 -1.36345
RightFoot  -3.6576 -0.59939 8.53813
RightToes  1.218e-010 1.26228e-014 -6.01869e-014
Spine  -7.43132 -0.64318 -1.53351
Spine1  9.7642 -0.0715997 -1.924
HEad  5.03114 10.0368 2.91944
LeftShoulder1  1.41302 -1.75852 -21.8077
LeftArm  5.51361 -0.476322 -54.4247
LeftForeArm  37.3631 -2.28923 -13.6856
LeftHand  -0.00881954 5.91926 4.10362
RightShoulder  1.44151 1.04515 27.1048
RightArm  -30.4007 2.08181 51.2337
RightForeArm  67.5108 -4.90079 0.549563
RightHand  0.292795 -7.41907 -17.4488
LeftUpLeg  -0.295526 1.06108 -5.48559
LeftLeg  15.9394 -0.793701 0.684474
LeftFoot  -15.2463 0.216314 3.65699
LeftToes  5.08156e-010 -6.90346e-011 -6.33378e-011
1136
root  0.319252 39.1819 -32.3706 -1.65527 -59.2034 3.95734
RightUpLeg  -22.1138 -2.33897 -6.21236
RightLeg  2.19078 -1.77165 -1.51774
RightFoot  -5.02927 -0.520674 8.8036
RightToes  1.218e-010 1.26228e-014 -6.01869e-014
Spine  -7.83808 -0.77857 -1.63664
Spine1  9.72346 -0.173943 -1.87273
HEad  4.8261 10.0164 2.72789
LeftShoulder1  1.39083 -1.66283 -21.9036
LeftArm  5.57503 -0.499656 -54.4033
LeftForeArm  36.9895 -2.10332 -13.7432
LeftHand  -0.0100263 5.97929 4.01774
RightShoulder  1.39715 0.900418 27.1864
RightArm  -31.2196 0.0535071 50.2098
RightForeArm  67.1351 -4.86002 0.227719
RightHand  0.286394 -7.38116 -17.2994
LeftUpLeg  1.44156 1.36531 -5.23457
LeftLeg  15.4674 -1.61661 0.462954
LeftFoot  -16.4514 0.245355 3.28303
LeftToes  5.08156e-010 -6.90346e-011 -6.33378e-011
